<?xml version="1.0" encoding="utf-8"?>
<!-- Generator: Adobe Illustrator 17.0.0, SVG Export Plug-In . SVG Version: 6.00 Build 0)  -->
<!DOCTYPE svg PUBLIC "-//W3C//DTD SVG 1.1//EN" "http://www.w3.org/Graphics/SVG/1.1/DTD/svg11.dtd">
<svg version="1.1" id="Capa_1" xmlns="http://www.w3.org/2000/svg" xmlns:xlink="http://www.w3.org/1999/xlink" x="0px" y="0px"
	 width="64px" height="64px" viewBox="0 0 64 64" enable-background="new 0 0 64 64" xml:space="preserve" fill='#FFF'>
<g>
	<path d="M44.525,16.953c2.98-1.113,4.506-4.455,3.398-7.453c-0.843-2.252-3.023-3.765-5.426-3.765c-0.692,0-1.37,0.122-2.012,0.36
		c-0.119,0.045-11.851,4.528-15.22,17.991l-3.597,0.007c-0.733,0-1.374,0.351-1.714,0.937c-0.339,0.587-0.322,1.317,0.046,1.957
		l8.638,14.903c0.366,0.638,0.99,1.018,1.67,1.018c0.678,0,1.302-0.38,1.671-1.018l8.59-14.937c0.367-0.636,0.384-1.365,0.045-1.952
		c-0.339-0.587-0.979-0.938-1.716-0.938l-1.366,0.002C39.952,18.875,44.363,17.02,44.525,16.953z M34.171,24.361
		c-0.231,0.646-0.147,1.323,0.229,1.858c0.379,0.539,0.994,0.848,1.689,0.848l0.955-0.001l-6.739,11.717L23.529,27.09l2.198-0.004
		c1.093-0.003,2.106-0.812,2.356-1.884C30.911,13.091,41.43,8.947,41.53,8.908c0.309-0.114,0.635-0.173,0.968-0.173
		c1.158,0,2.209,0.729,2.613,1.809c0.535,1.447-0.199,3.061-1.679,3.614C42.761,14.434,36.798,17.051,34.171,24.361z"/>
	<path d="M53.334,33.303c-0.828,0-1.5,0.672-1.5,1.5v12.833H12.167V34.803c0-0.828-0.672-1.5-1.5-1.5c-0.828,0-1.5,0.672-1.5,1.5
		v13.333c0,1.379,1.121,2.5,2.5,2.5h40.667c1.379,0,2.5-1.121,2.5-2.5V34.803C54.834,33.975,54.162,33.303,53.334,33.303z"/>
</g>
</svg>
