<?xml version="1.0" encoding="utf-8"?>
<!-- Generator: Adobe Illustrator 16.0.4, SVG Export Plug-In . SVG Version: 6.00 Build 0)  -->
<!DOCTYPE svg PUBLIC "-//W3C//DTD SVG 1.1//EN" "http://www.w3.org/Graphics/SVG/1.1/DTD/svg11.dtd">
<svg version="1.1" id="Capa_1" xmlns="http://www.w3.org/2000/svg" xmlns:xlink="http://www.w3.org/1999/xlink" x="0px" y="0px"
	 width="16px" height="16.324px" viewBox="0 0 16 16.324" enable-background="new 0 0 16 16.324" xml:space="preserve" fill="#FFF">
<path d="M14.148,4.449c-0.436-3.162-3.588-4.772-6.95-4.395C4.54,0.352,1.89,2.501,1.78,5.574C1.713,7.45,2.245,8.858,4.03,9.253
	c0.773-1.368-0.249-1.667-0.409-2.658c-0.655-4.05,4.672-6.816,7.462-3.986c1.931,1.96,0.659,7.986-2.453,7.359
	c-2.981-0.598,1.46-5.395-0.919-6.336C5.777,2.866,4.75,5.972,5.667,7.516C5.129,10.171,3.971,12.671,4.44,16
	c1.52-1.103,2.033-3.215,2.453-5.418c0.764,0.465,1.173,0.947,2.147,1.022C12.633,11.882,14.641,8.017,14.148,4.449z"/>
</svg>
