<?xml version="1.0" encoding="iso-8859-1"?>
<!-- Generator: Adobe Illustrator 16.0.0, SVG Export Plug-In . SVG Version: 6.00 Build 0)  -->
<!DOCTYPE svg PUBLIC "-//W3C//DTD SVG 1.1//EN" "http://www.w3.org/Graphics/SVG/1.1/DTD/svg11.dtd">
<svg version="1.1" id="Capa_1" xmlns="http://www.w3.org/2000/svg" xmlns:xlink="http://www.w3.org/1999/xlink" x="0px" y="0px"
	 width="20.847px" height="16.811px" viewBox="0 0 20.847 16.811" style="enable-background:new 0 0 20.847 16.811;"
	 xml:space="preserve" fill="#FFF">
<path d="M17.811,0c2.017,0.053,3.026,1.198,3.036,3.438c0,0.147-0.005,0.3-0.013,0.457c-0.089,1.899-1.502,4.486-4.245,7.76
	c-2.829,3.43-5.229,5.147-7.2,5.156c-1.226,0-2.244-1.05-3.061-3.151L5.47,10.78L4.622,7.904C3.997,5.82,3.329,4.78,2.616,4.78
	c-0.156,0-0.697,0.304-1.626,0.91L0,4.519l1.536-1.276L3.047,1.98C4.4,0.896,5.429,0.31,6.135,0.223
	C6.229,0.213,6.323,0.21,6.419,0.21c1.449,0,2.354,1.041,2.709,3.124C9.326,4.522,9.49,5.488,9.623,6.23
	C9.752,6.974,9.86,7.492,9.946,7.787c0.479,1.97,0.995,2.96,1.55,2.968c0.426,0,1.082-0.642,1.968-1.926
	c0.866-1.319,1.332-2.296,1.392-2.932c0.019-0.129,0.026-0.25,0.026-0.362c0-0.861-0.474-1.29-1.418-1.29
	c-0.479,0-0.99,0.102-1.537,0.299c0.98-3.021,2.864-4.534,5.65-4.544C17.655,0,17.732,0,17.811,0z"/>
<g>
</g>
<g>
</g>
<g>
</g>
<g>
</g>
<g>
</g>
<g>
</g>
<g>
</g>
<g>
</g>
<g>
</g>
<g>
</g>
<g>
</g>
<g>
</g>
<g>
</g>
<g>
</g>
<g>
</g>
</svg>
